<?xml version="1.0" standalone="no"?><!DOCTYPE svg PUBLIC "-//W3C//DTD SVG 1.1//EN" "http://www.w3.org/Graphics/SVG/1.1/DTD/svg11.dtd"><svg t="1645368089669" class="icon" viewBox="0 0 1058 1024" version="1.1" xmlns="http://www.w3.org/2000/svg" p-id="10376" width="61.9921875" height="60" xmlns:xlink="http://www.w3.org/1999/xlink"><defs><style type="text/css"></style></defs><path d="M262.749642 0h498.910303c91.303623 0 124.411853 9.48875 157.759008 27.339889a186.08873 186.08873 0 0 1 77.411819 77.411819c17.851138 33.381287 27.374021 66.489517 27.374021 157.793141v498.87617c0 91.303623-9.522883 124.411853-27.374021 157.793141a186.08873 186.08873 0 0 1-77.411819 77.411819c-33.347155 17.851138-66.455385 27.339889-157.759008 27.339889H262.749642c-91.269491 0-124.377721-9.48875-157.759008-27.339889A186.08873 186.08873 0 0 1 27.578814 919.180027c-17.851138-33.381287-27.339889-66.489517-27.339889-157.79314V262.544849c0-91.303623 9.48875-124.411853 27.339889-157.793141A186.08873 186.08873 0 0 1 104.990634 27.339889C138.371921 9.48875 171.480151 0 262.749642 0z" fill="#1077FF" p-id="10377"></path><path d="M1024.204793 702.099263c-38.330456-11.570814-272.750375-82.599913-327.805606-102.362454 36.111863-61.233159 64.851172-131.443085 83.896936-207.762675h-206.499783V322.788174h253.260891V280.361855h-253.260891V164.892637H476.48545c-17.543949 0-19.626012 15.70081-19.626012 15.70081v99.768408H219.367621v42.426319h237.491817v69.18596H262.135262v38.569381h393.441819a691.176961 691.176961 0 0 1-56.42052 136.119196c-88.709576-28.978234-138.474318-49.082097-247.390153-59.116963-206.499783-19.182294-254.080064 92.771308-261.452618 161.274625-11.19536 104.103197 82.292724 189.433686 222.405386 189.433685 140.010266 0 233.020499-63.827206 321.730076-169.944202 113.660211 53.655811 387.844139 170.763375 387.844138 170.763375l1.877271-156.973968z m-727.015766 90.108997c-148.031332 0-171.411886-92.327589-163.595613-130.862838 7.713876-38.466984 50.618046-88.470651 132.876637-88.470651 94.546182 0 179.262291 23.824273 280.90797 72.803973-71.268024 91.71321-159.021899 146.529516-250.188994 146.529516z" fill="#FFFFFF" p-id="10378"></path></svg>