<?xml version="1.0" standalone="no"?><!DOCTYPE svg PUBLIC "-//W3C//DTD SVG 1.1//EN" "http://www.w3.org/Graphics/SVG/1.1/DTD/svg11.dtd"><svg t="1645415163676" class="icon" viewBox="0 0 1024 1024" version="1.1" xmlns="http://www.w3.org/2000/svg" p-id="106113" width="60" height="60" xmlns:xlink="http://www.w3.org/1999/xlink"><defs><style type="text/css"></style></defs><path d="M0.002613 3.135755h1020.864245v1020.864245H0.002613z" fill="#38C152" p-id="106114"></path><path d="M325.87439 621.422185h-76.607354l-14.839963 50.068287h-62.97031l84.047753-257.523215h32.002393v0.214382l0.173547-0.214382h32.002393l84.2213 257.523215h-62.972011l-15.057748-50.068287z m-62.800165-45.938891h48.991275l-24.043054-79.962595h-1.075311l-23.87291 79.962595zM482.056411 583.224848v88.265624h-59.788616V413.967257h98.329644c30.539154 0 54.759158 7.828327 72.694042 23.355673 17.894049 15.569881 26.88446 36.046717 26.88446 61.381164 0 25.378685-8.990411 45.765344-26.88446 61.292689-17.934883 15.486511-42.153186 23.2706-72.694042 23.270601h-38.541028v-0.042536z m0-45.978024h38.541028c12.990498 0 22.884373-3.573025 29.678225-10.712269 6.83979-7.096708 10.239268-16.301501 10.239269-27.485069 0-11.484723-3.356942-20.818825-10.152495-28.131615-6.753017-7.311089-16.689429-10.967485-29.764999-10.967485h-38.541028v77.296438zM713.04226 583.224848v88.265624h-59.790318V413.967257h98.329644c30.539154 0 54.757457 7.828327 72.649804 23.355673 17.979121 15.569881 26.882758 36.046717 26.882759 61.381164 0 25.378685-8.901936 45.765344-26.882759 61.292689-17.894049 15.486511-42.11065 23.2706-72.649804 23.270601H713.04226v-0.042536z m0-45.978024h38.539326c12.988796 0 22.841837-3.573025 29.724164-10.712269 6.793852-7.096708 10.235865-16.301501 10.235866-27.485069 0-11.484723-3.397776-20.818825-10.150794-28.131615-6.797254-7.311089-16.733666-10.967485-29.809236-10.967485H713.04226v77.296438z" fill="#FFFFFF" p-id="106115"></path></svg>