<?xml version="1.0" standalone="no"?><!DOCTYPE svg PUBLIC "-//W3C//DTD SVG 1.1//EN" "http://www.w3.org/Graphics/SVG/1.1/DTD/svg11.dtd"><svg t="1647744751423" class="icon" viewBox="0 0 1024 1024" version="1.1" xmlns="http://www.w3.org/2000/svg" p-id="1287" width="60" height="60" xmlns:xlink="http://www.w3.org/1999/xlink"><defs><style type="text/css">@font-face { font-family: feedback-iconfont; src: url("//at.alicdn.com/t/font_1031158_u69w8yhxdu.woff2?t=1630033759944") format("woff2"), url("//at.alicdn.com/t/font_1031158_u69w8yhxdu.woff?t=1630033759944") format("woff"), url("//at.alicdn.com/t/font_1031158_u69w8yhxdu.ttf?t=1630033759944") format("truetype"); }
</style></defs><path d="M150.588235 0h722.82353c83.169882 0 150.588235 67.418353 150.588235 150.588235v722.82353c0 83.169882-67.418353 150.588235-150.588235 150.588235H150.588235C67.418353 1024 0 956.581647 0 873.411765V150.588235C0 67.418353 67.418353 0 150.588235 0z m563.772236 215.657412h-35.990589v216.124235a36.080941 36.080941 0 0 1-35.945411 35.990588H354.710588a36.096 36.096 0 0 1-35.96047-35.990588V215.642353h-35.960471c-39.559529 0-71.966118 32.451765-71.966118 72.026353v432.233412c0 39.589647 32.406588 72.026353 71.966118 72.026353h431.570824c39.559529 0 71.951059-32.436706 71.951058-72.026353V287.683765c0-39.574588-32.391529-72.026353-71.951058-72.026353zM372.705882 431.766588h251.738353c9.923765 0 17.980235-8.101647 17.980236-17.995294V215.642353H354.725647v198.113882c0 9.893647 8.086588 17.995294 17.980235 17.995294z m161.837177-126.042353a18.070588 18.070588 0 0 1 17.965176-18.04047 18.070588 18.070588 0 0 1 17.995294 18.04047v72.041412a18.070588 18.070588 0 0 1-17.995294 17.995294 18.055529 18.055529 0 0 1-17.965176-17.995294v-72.041412z" fill="#1AA5DD" p-id="1288"></path></svg>