<?xml version="1.0" standalone="no"?><!DOCTYPE svg PUBLIC "-//W3C//DTD SVG 1.1//EN" "http://www.w3.org/Graphics/SVG/1.1/DTD/svg11.dtd"><svg t="1602143804750" class="icon" viewBox="0 0 1024 1024" version="1.1" xmlns="http://www.w3.org/2000/svg" p-id="19697" width="62" height="62" xmlns:xlink="http://www.w3.org/1999/xlink"><defs><style type="text/css"></style></defs><path d="M40.96 291.84l437.76 186.88v504.32c-35.84-15.36-71.68-33.28-107.52-48.64-33.28-15.36-69.12-30.72-110.08-48.64l-122.88-53.76c-15.36-7.68-28.16-15.36-40.96-28.16-10.24-10.24-20.48-23.04-28.16-35.84-7.68-12.8-15.36-28.16-20.48-43.52-5.12-15.36-7.68-30.72-7.68-43.52V291.84z" fill="#BBBBBB" p-id="19698"></path><path d="M983.04 291.84v389.12c0 17.92-2.56 35.84-10.24 51.2-7.68 17.92-15.36 33.28-25.6 46.08-10.24 15.36-23.04 28.16-35.84 38.4-12.8 10.24-25.6 20.48-38.4 25.6-35.84 15.36-71.68 30.72-112.64 46.08-38.4 15.36-74.24 30.72-107.52 46.08-38.4 15.36-76.8 33.28-112.64 46.08V478.72l442.88-186.88z" fill="#00D19C" p-id="19699"></path><path d="M954.88 215.04l-437.76 181.76L76.8 215.04l437.76-174.08z" fill="#FCA253" p-id="19700"></path></svg>