<?xml version="1.0" standalone="no"?><!DOCTYPE svg PUBLIC "-//W3C//DTD SVG 1.1//EN" "http://www.w3.org/Graphics/SVG/1.1/DTD/svg11.dtd"><svg t="1647867024922" class="icon" viewBox="0 0 1024 1024" version="1.1" xmlns="http://www.w3.org/2000/svg" p-id="38179" width="120" height="120" xmlns:xlink="http://www.w3.org/1999/xlink"><defs><style type="text/css">@font-face { font-family: feedback-iconfont; src: url("//at.alicdn.com/t/font_1031158_u69w8yhxdu.woff2?t=1630033759944") format("woff2"), url("//at.alicdn.com/t/font_1031158_u69w8yhxdu.woff?t=1630033759944") format("woff"), url("//at.alicdn.com/t/font_1031158_u69w8yhxdu.ttf?t=1630033759944") format("truetype"); }
</style></defs><path d="M622.250667 346.794667h-252.586667a17.066667 17.066667 0 0 1-17.066667-17.066667 17.408 17.408 0 0 1 17.066667-17.066667h252.586667a17.408 17.408 0 0 1 17.066666 17.066667 17.066667 17.066667 0 0 1-17.066666 17.066667z" fill="#bfbfbf" p-id="38180"></path><path d="M477.866667 849.237333H298.666667a81.237333 81.237333 0 0 1-80.896-81.237333v-512a81.237333 81.237333 0 0 1 80.896-81.237333h426.666666a81.237333 81.237333 0 0 1 80.896 81.237333v264.874667a17.066667 17.066667 0 0 1-17.066666 17.066666 17.066667 17.066667 0 0 1-17.066667-17.066666V256a46.762667 46.762667 0 0 0-46.762667-47.104H298.666667A46.762667 46.762667 0 0 0 251.904 256v512a46.762667 46.762667 0 0 0 46.762667 47.104H477.866667a17.066667 17.066667 0 0 1 17.066666 17.066667 17.408 17.408 0 0 1-17.066666 17.066666z" fill="#bfbfbf" p-id="38181"></path><path d="M495.957333 493.226667h-126.293333a17.408 17.408 0 0 1-17.066667-17.066667 17.066667 17.066667 0 0 1 17.066667-17.066667h126.293333a17.066667 17.066667 0 0 1 17.066667 17.066667 17.066667 17.066667 0 0 1-17.066667 17.066667zM426.666667 639.317333h-57.002667a17.066667 17.066667 0 0 1 0-34.133333h57.002667a17.066667 17.066667 0 0 1 0 34.133333zM660.48 848.896a146.090667 146.090667 0 1 1 145.749333-146.090667 146.090667 146.090667 0 0 1-145.749333 146.090667z m0-258.048a111.957333 111.957333 0 1 0 111.616 111.957333 111.957333 111.957333 0 0 0-111.616-111.957333z" fill="#bfbfbf" p-id="38182"></path><path d="M703.488 719.872h-86.016a17.066667 17.066667 0 0 1-17.066667-17.066667 17.066667 17.066667 0 0 1 17.066667-17.066666h86.016a17.408 17.408 0 0 1 17.066667 17.066666 17.066667 17.066667 0 0 1-17.066667 17.066667z" fill="#bfbfbf" p-id="38183"></path><path d="M660.48 762.88a17.066667 17.066667 0 0 1-17.066667-17.066667v-86.016a17.066667 17.066667 0 0 1 17.066667-17.066666 17.408 17.408 0 0 1 17.066667 17.066666v86.016a17.066667 17.066667 0 0 1-17.066667 17.066667z" fill="#bfbfbf" p-id="38184"></path></svg>