<?xml version="1.0" standalone="no"?><!DOCTYPE svg PUBLIC "-//W3C//DTD SVG 1.1//EN" "http://www.w3.org/Graphics/SVG/1.1/DTD/svg11.dtd"><svg t="1648179562747" class="icon" viewBox="0 0 1024 1024" version="1.1" xmlns="http://www.w3.org/2000/svg" p-id="16219" width="60" height="60" xmlns:xlink="http://www.w3.org/1999/xlink"><defs><style type="text/css">@font-face { font-family: feedback-iconfont; src: url("//at.alicdn.com/t/font_1031158_u69w8yhxdu.woff2?t=1630033759944") format("woff2"), url("//at.alicdn.com/t/font_1031158_u69w8yhxdu.woff?t=1630033759944") format("woff"), url("//at.alicdn.com/t/font_1031158_u69w8yhxdu.ttf?t=1630033759944") format("truetype"); }
</style></defs><path d="M0 0m273.066667 0l477.866666 0q273.066667 0 273.066667 273.066667l0 477.866666q0 273.066667-273.066667 273.066667l-477.866666 0q-273.066667 0-273.066667-273.066667l0-477.866666q0-273.066667 273.066667-273.066667Z" fill="#F2984E" p-id="16220"></path><path d="M494.933333 785.066667h-273.066666a17.066667 17.066667 0 0 1-17.066667-17.066667v-17.066667h614.4v17.066667a17.066667 17.066667 0 0 1-17.066667 17.066667h-273.066666v-17.066667h-34.133334v17.066667z m290.133334-68.266667h-546.133334a34.133333 34.133333 0 0 1-34.133333-34.133333V273.066667a34.133333 34.133333 0 0 1 34.133333-34.133334h546.133334a34.133333 34.133333 0 0 1 34.133333 34.133334v409.6a34.133333 34.133333 0 0 1-34.133333 34.133333z m-529.066667-443.733333a17.066667 17.066667 0 0 0-17.066667 17.066666v375.466667a17.066667 17.066667 0 0 0 17.066667 17.066667h512a17.066667 17.066667 0 0 0 17.066667-17.066667V290.133333a17.066667 17.066667 0 0 0-17.066667-17.066666z m477.866667 375.466666h-443.733334a17.066667 17.066667 0 0 1-17.066666-17.066666V324.266667a17.066667 17.066667 0 0 1 17.066666-17.066667h443.733334a17.066667 17.066667 0 0 1 17.066666 17.066667v307.2a17.066667 17.066667 0 0 1-17.066666 17.066666z m-236.322134-113.698133v41.181867l24.866134-34.013867z m69.7344-91.2384l-67.396266 79.479467 75.588266 23.3472L614.4 396.8l-204.8 99.157333 70.724267 21.418667z" fill="#FFFFFF" p-id="16221"></path></svg>