<?xml version="1.0" standalone="no"?><!DOCTYPE svg PUBLIC "-//W3C//DTD SVG 1.1//EN" "http://www.w3.org/Graphics/SVG/1.1/DTD/svg11.dtd"><svg t="1645367895987" class="icon" viewBox="0 0 1024 1024" version="1.1" xmlns="http://www.w3.org/2000/svg" p-id="3402" width="60" height="60" xmlns:xlink="http://www.w3.org/1999/xlink"><defs><style type="text/css"></style></defs><path d="M537.033149 409.78485zM316.094289 319.563646a37.226022 37.226022 0 0 0-39.984558 33.145095 37.325557 37.325557 0 0 0 39.984558 33.145095 31.282372 31.282372 0 0 0 33.145095-33.201972 31.182837 31.182837 0 0 0-33.145095-33.073998m185.746192 66.204874a31.282372 31.282372 0 0 0 33.201972-33.145095 31.282372 31.282372 0 0 0-33.201972-33.145095 36.970076 36.970076 0 0 0-39.813928 33.145095 37.211803 37.211803 0 0 0 39.813928 33.145095m86.197153 126.267027a26.490481 26.490481 0 0 0 0 52.980963 30.230146 30.230146 0 0 0 33.273069-26.490481 30.187489 30.187489 0 0 0-33.273069-26.490482m146.074457 0a26.51892 26.51892 0 0 0 0 53.03784 30.272804 30.272804 0 0 0 33.273068-26.561578 30.486093 30.486093 0 0 0-33.273068-26.490481m92.851767-511.879136H196.823137A196.879872 196.879872 0 0 0-0.014077 197.093161v630.069625a196.879872 196.879872 0 0 0 196.837214 196.780337h630.126502a197.078942 197.078942 0 0 0 193.694758-162.099563l3.128237-160.79139V197.093161A196.950969 196.950969 0 0 0 826.949639 0.156412M402.390977 658.053128a450.537249 450.537249 0 0 1-92.908644-13.238131l-92.709574 46.511199 26.5047-79.741609c-66.47504-46.511199-106.217871-106.345845-106.217871-179.162675 0-126.238589 119.441783-225.616996 265.345609-225.616996 130.532806 0 244.741901 79.471443 267.848198 186.272304a231.645963 231.645963 0 0 0-25.594668-1.53568c-126.110616 0-225.5459 94.060404-225.616996 209.933153a195.372631 195.372631 0 0 0 8.247171 55.725279q-12.470291 0.753621-24.954802 0.838937m391.271374 93.093494l20.020718 66.347067-72.816829-39.97034a332.3752 332.3752 0 0 1-79.627856 13.238131c-126.309685 0-225.616996-86.25403-225.616996-192.471902s99.421065-192.585656 225.616996-192.585655c119.200056 0 225.417927 86.438881 225.417927 192.599875 0 59.720891-39.671735 112.872485-93.036617 152.857043m0.056877 0z" fill="#00C186" p-id="3403"></path></svg>