<?xml version="1.0" standalone="no"?><!DOCTYPE svg PUBLIC "-//W3C//DTD SVG 1.1//EN" "http://www.w3.org/Graphics/SVG/1.1/DTD/svg11.dtd"><svg t="1645414756759" class="icon" viewBox="0 0 1024 1024" version="1.1" xmlns="http://www.w3.org/2000/svg" p-id="2066" width="60" height="60" xmlns:xlink="http://www.w3.org/1999/xlink"><defs><style type="text/css"></style></defs><path d="M46.545455 0h930.90909c25.6 0 46.545455 20.945455 46.545455 46.545455v930.90909c0 25.6-20.945455 46.545455-46.545455 46.545455h-930.90909c-25.6 0-46.545455-20.945455-46.545455-46.545455v-930.90909c0-25.6 20.945455-46.545455 46.545455-46.545455z" fill="#28CF5E" p-id="2067"></path><path d="M328.424727 685.242182c44.218182 44.218182 118.690909 11.636364 134.981818-30.254546s11.636364-188.509091 6.981819-246.690909 81.454545-207.127273 239.709091-118.690909c0 0 176.872727 104.727273-27.927273 272.290909 0 0-69.818182 4.654545-53.527273-53.527272-2.327273-18.618182 86.109091-58.181818 74.472727-114.036364-18.618182-67.490909-123.345455-102.4-155.927272 11.636364v230.4c0 53.527273-72.145455 176.872727-223.418182 125.672727 0 0-102.4-44.218182-95.418182-151.272727 4.654545-48.872727 51.2-109.381818 104.727273-130.327273 58.181818-16.290909 79.127273 34.909091 53.527272 60.509091-20.945455 9.309091-139.636364 67.490909-58.181818 144.290909z" fill="#FFFFFF" p-id="2068"></path></svg>