<?xml version="1.0" standalone="no"?><!DOCTYPE svg PUBLIC "-//W3C//DTD SVG 1.1//EN" "http://www.w3.org/Graphics/SVG/1.1/DTD/svg11.dtd"><svg t="1645415256558" class="icon" viewBox="0 0 1024 1024" version="1.1" xmlns="http://www.w3.org/2000/svg" p-id="125371" width="60" height="60" xmlns:xlink="http://www.w3.org/1999/xlink"><defs><style type="text/css"></style></defs><path d="M870.4 1024H153.6c-84.48 0-153.6-69.12-153.6-153.6V153.6C0 69.12 69.12 0 153.6 0h716.8c84.48 0 153.6 69.12 153.6 153.6v716.8c0 84.48-69.12 153.6-153.6 153.6z" fill="#1FC372" p-id="125372"></path><path d="M350.72 571.392S288.768 501.76 291.328 430.08c13.824-117.76 112.64-207.36 231.424-208.896 38.4 0 115.2 0 210.432 112.128 4.608 6.656-307.2-77.824-382.464 238.08z" fill="#FFFFFF" p-id="125373"></path><path d="M541.696 382.976c48.128-14.848 99.328-16.384 147.968-3.584 109.056 39.936 168.96 156.672 138.24 268.8-10.752 36.864-32.768 110.592-167.424 169.472-7.168 3.584 215.552-271.872-118.784-434.688z" fill="#FFFFFF" p-id="125374"></path><path d="M425.472 689.152c-18.432 23.552-46.592 36.352-76.288 35.328l11.776-65.024c-106.496-70.144-129.536-210.944-131.584-206.336-49.664 139.264-18.432 231.936 0.512 265.216 67.584 117.248 243.712 150.016 355.84 79.36 60.416-38.4 92.16-143.872 92.16-143.872-107.52 48.128-190.464 52.736-252.416 35.328z" fill="#FFFFFF" p-id="125375"></path></svg>