<?xml version="1.0" standalone="no"?><!DOCTYPE svg PUBLIC "-//W3C//DTD SVG 1.1//EN" "http://www.w3.org/Graphics/SVG/1.1/DTD/svg11.dtd"><svg t="1645368019859" class="icon" viewBox="0 0 1024 1024" version="1.1" xmlns="http://www.w3.org/2000/svg" p-id="4411" width="60" height="60" xmlns:xlink="http://www.w3.org/1999/xlink"><defs><style type="text/css"></style></defs><path d="M870.4 0H153.6C68.608 0 0 68.608 0 153.6v716.8c0 84.992 68.608 153.6 153.6 153.6h716.8c84.992 0 153.6-68.608 153.6-153.6V153.6c0-84.992-68.608-153.6-153.6-153.6z m-358.4 786.944c-45.056 0-83.456-6.144-121.344-18.944-25.6 12.8-64 45.056-76.8 51.2-25.6 12.8-18.944-12.8-18.944-12.8l12.8-76.8c-76.8-51.2-121.344-134.656-121.344-223.744 0-159.744 147.456-288.256 326.144-288.256 108.544 0 210.944 51.2 268.8 121.344L460.8 486.4s-25.6 12.8-51.2-6.144l-51.2-38.4S320 409.6 339.456 460.8l51.2 115.2s6.144 32.256 45.056 12.8c32.256-12.8 268.8-159.744 371.2-217.6 18.944 38.4 32.256 83.456 32.256 128-1.024 153.6-147.968 287.744-327.168 287.744z" fill="#00BB09" p-id="4412"></path></svg>